<mxfile host="app.diagrams.net" modified="2023-01-11T09:13:45.454Z" agent="5.0 (Macintosh; Intel Mac OS X 10_15_7) AppleWebKit/537.36 (KHTML, like Gecko) Chrome/108.0.0.0 Safari/537.36" etag="d6_6kivSeDGk696TJuUG" version="20.6.0" type="github">
  <diagram id="C5RBs43oDa-KdzZeNtuy" name="Page-1">
    <mxGraphModel dx="815" dy="542" grid="1" gridSize="10" guides="1" tooltips="1" connect="1" arrows="1" fold="1" page="1" pageScale="1" pageWidth="827" pageHeight="1169" math="0" shadow="0">
      <root>
        <mxCell id="WIyWlLk6GJQsqaUBKTNV-0" />
        <mxCell id="WIyWlLk6GJQsqaUBKTNV-1" parent="WIyWlLk6GJQsqaUBKTNV-0" />
        <mxCell id="WIyWlLk6GJQsqaUBKTNV-2" value="" style="rounded=0;html=1;jettySize=auto;orthogonalLoop=1;fontSize=11;endArrow=block;endFill=0;endSize=8;strokeWidth=1;shadow=0;labelBackgroundColor=none;edgeStyle=orthogonalEdgeStyle;" parent="WIyWlLk6GJQsqaUBKTNV-1" source="WIyWlLk6GJQsqaUBKTNV-3" edge="1">
          <mxGeometry relative="1" as="geometry">
            <mxPoint x="220" y="170" as="targetPoint" />
          </mxGeometry>
        </mxCell>
        <mxCell id="WIyWlLk6GJQsqaUBKTNV-3" value="用户提交汇款单" style="rounded=1;whiteSpace=wrap;html=1;fontSize=12;glass=0;strokeWidth=1;shadow=0;" parent="WIyWlLk6GJQsqaUBKTNV-1" vertex="1">
          <mxGeometry x="160" y="60" width="120" height="40" as="geometry" />
        </mxCell>
        <mxCell id="jxHOd6wvDyINd-V9LC7c-0" value="创建交易，汇款单状态为&#39;&#39;待汇款&#39;&#39;" style="rounded=0;whiteSpace=wrap;html=1;" parent="WIyWlLk6GJQsqaUBKTNV-1" vertex="1">
          <mxGeometry x="160" y="170" width="120" height="60" as="geometry" />
        </mxCell>
        <mxCell id="jxHOd6wvDyINd-V9LC7c-4" value="" style="edgeStyle=orthogonalEdgeStyle;rounded=0;orthogonalLoop=1;jettySize=auto;html=1;exitX=0.5;exitY=1;exitDx=0;exitDy=0;" parent="WIyWlLk6GJQsqaUBKTNV-1" source="jxHOd6wvDyINd-V9LC7c-6" target="jxHOd6wvDyINd-V9LC7c-3" edge="1">
          <mxGeometry relative="1" as="geometry">
            <mxPoint x="220" y="555" as="sourcePoint" />
          </mxGeometry>
        </mxCell>
        <mxCell id="jxHOd6wvDyINd-V9LC7c-16" value="" style="edgeStyle=orthogonalEdgeStyle;rounded=0;orthogonalLoop=1;jettySize=auto;html=1;" parent="WIyWlLk6GJQsqaUBKTNV-1" source="jxHOd6wvDyINd-V9LC7c-3" target="jxHOd6wvDyINd-V9LC7c-15" edge="1">
          <mxGeometry relative="1" as="geometry" />
        </mxCell>
        <mxCell id="jxHOd6wvDyINd-V9LC7c-3" value="汇单款单状态变更为&quot;待请款&quot;" style="whiteSpace=wrap;html=1;rounded=0;" parent="WIyWlLk6GJQsqaUBKTNV-1" vertex="1">
          <mxGeometry x="160" y="450" width="120" height="60" as="geometry" />
        </mxCell>
        <mxCell id="jxHOd6wvDyINd-V9LC7c-9" value="" style="edgeStyle=orthogonalEdgeStyle;rounded=0;orthogonalLoop=1;jettySize=auto;html=1;" parent="WIyWlLk6GJQsqaUBKTNV-1" source="jxHOd6wvDyINd-V9LC7c-6" target="jxHOd6wvDyINd-V9LC7c-8" edge="1">
          <mxGeometry relative="1" as="geometry" />
        </mxCell>
        <mxCell id="jxHOd6wvDyINd-V9LC7c-10" value="否" style="edgeLabel;html=1;align=center;verticalAlign=middle;resizable=0;points=[];" parent="jxHOd6wvDyINd-V9LC7c-9" vertex="1" connectable="0">
          <mxGeometry x="-0.3424" y="3" relative="1" as="geometry">
            <mxPoint as="offset" />
          </mxGeometry>
        </mxCell>
        <mxCell id="jxHOd6wvDyINd-V9LC7c-6" value="是否汇款" style="rhombus;whiteSpace=wrap;html=1;rounded=0;" parent="WIyWlLk6GJQsqaUBKTNV-1" vertex="1">
          <mxGeometry x="180" y="310" width="80" height="80" as="geometry" />
        </mxCell>
        <mxCell id="jxHOd6wvDyINd-V9LC7c-7" value="" style="endArrow=classic;html=1;rounded=0;exitX=0.5;exitY=1;exitDx=0;exitDy=0;entryX=0.5;entryY=0;entryDx=0;entryDy=0;" parent="WIyWlLk6GJQsqaUBKTNV-1" source="jxHOd6wvDyINd-V9LC7c-0" target="jxHOd6wvDyINd-V9LC7c-6" edge="1">
          <mxGeometry width="50" height="50" relative="1" as="geometry">
            <mxPoint x="390" y="370" as="sourcePoint" />
            <mxPoint x="440" y="320" as="targetPoint" />
          </mxGeometry>
        </mxCell>
        <mxCell id="jxHOd6wvDyINd-V9LC7c-12" value="" style="edgeStyle=orthogonalEdgeStyle;rounded=0;orthogonalLoop=1;jettySize=auto;html=1;" parent="WIyWlLk6GJQsqaUBKTNV-1" source="jxHOd6wvDyINd-V9LC7c-8" target="jxHOd6wvDyINd-V9LC7c-11" edge="1">
          <mxGeometry relative="1" as="geometry" />
        </mxCell>
        <mxCell id="jxHOd6wvDyINd-V9LC7c-8" value="取消汇款单" style="whiteSpace=wrap;html=1;rounded=0;" parent="WIyWlLk6GJQsqaUBKTNV-1" vertex="1">
          <mxGeometry x="334" y="320" width="80" height="60" as="geometry" />
        </mxCell>
        <mxCell id="jxHOd6wvDyINd-V9LC7c-11" value="交易关闭，汇款单状态变为&#39;&#39;已取消&#39;&#39;" style="whiteSpace=wrap;html=1;rounded=0;" parent="WIyWlLk6GJQsqaUBKTNV-1" vertex="1">
          <mxGeometry x="490" y="320" width="120" height="60" as="geometry" />
        </mxCell>
        <mxCell id="jxHOd6wvDyINd-V9LC7c-18" value="" style="edgeStyle=orthogonalEdgeStyle;rounded=0;orthogonalLoop=1;jettySize=auto;html=1;" parent="WIyWlLk6GJQsqaUBKTNV-1" source="jxHOd6wvDyINd-V9LC7c-15" target="jxHOd6wvDyINd-V9LC7c-17" edge="1">
          <mxGeometry relative="1" as="geometry" />
        </mxCell>
        <mxCell id="jxHOd6wvDyINd-V9LC7c-21" value="否" style="edgeLabel;html=1;align=center;verticalAlign=middle;resizable=0;points=[];" parent="jxHOd6wvDyINd-V9LC7c-18" vertex="1" connectable="0">
          <mxGeometry x="0.0576" y="2" relative="1" as="geometry">
            <mxPoint as="offset" />
          </mxGeometry>
        </mxCell>
        <mxCell id="jxHOd6wvDyINd-V9LC7c-25" value="" style="edgeStyle=orthogonalEdgeStyle;rounded=0;orthogonalLoop=1;jettySize=auto;html=1;" parent="WIyWlLk6GJQsqaUBKTNV-1" source="jxHOd6wvDyINd-V9LC7c-15" target="jxHOd6wvDyINd-V9LC7c-24" edge="1">
          <mxGeometry relative="1" as="geometry" />
        </mxCell>
        <mxCell id="jxHOd6wvDyINd-V9LC7c-15" value="是否请款" style="rhombus;whiteSpace=wrap;html=1;rounded=0;" parent="WIyWlLk6GJQsqaUBKTNV-1" vertex="1">
          <mxGeometry x="180" y="580" width="80" height="80" as="geometry" />
        </mxCell>
        <mxCell id="jxHOd6wvDyINd-V9LC7c-23" value="" style="edgeStyle=orthogonalEdgeStyle;rounded=0;orthogonalLoop=1;jettySize=auto;html=1;" parent="WIyWlLk6GJQsqaUBKTNV-1" source="jxHOd6wvDyINd-V9LC7c-17" target="jxHOd6wvDyINd-V9LC7c-22" edge="1">
          <mxGeometry relative="1" as="geometry" />
        </mxCell>
        <mxCell id="jxHOd6wvDyINd-V9LC7c-17" value="取消汇款单" style="whiteSpace=wrap;html=1;rounded=0;" parent="WIyWlLk6GJQsqaUBKTNV-1" vertex="1">
          <mxGeometry x="320" y="590" width="120" height="60" as="geometry" />
        </mxCell>
        <mxCell id="jxHOd6wvDyINd-V9LC7c-22" value="汇款原路退回，汇款单状态变为&#39;&#39;已取消&#39;&#39;" style="whiteSpace=wrap;html=1;rounded=0;" parent="WIyWlLk6GJQsqaUBKTNV-1" vertex="1">
          <mxGeometry x="520" y="590" width="120" height="60" as="geometry" />
        </mxCell>
        <mxCell id="jxHOd6wvDyINd-V9LC7c-27" value="" style="edgeStyle=orthogonalEdgeStyle;rounded=0;orthogonalLoop=1;jettySize=auto;html=1;" parent="WIyWlLk6GJQsqaUBKTNV-1" source="jxHOd6wvDyINd-V9LC7c-24" target="jxHOd6wvDyINd-V9LC7c-26" edge="1">
          <mxGeometry relative="1" as="geometry" />
        </mxCell>
        <mxCell id="jxHOd6wvDyINd-V9LC7c-24" value="汇款单状态变更为&#39;&#39;已提款&#39;&#39;，智户宝自动发起提现" style="whiteSpace=wrap;html=1;rounded=0;" parent="WIyWlLk6GJQsqaUBKTNV-1" vertex="1">
          <mxGeometry x="160" y="750" width="120" height="60" as="geometry" />
        </mxCell>
        <mxCell id="rYNuNte5FlujtF33tFsd-1" value="" style="edgeStyle=orthogonalEdgeStyle;rounded=0;orthogonalLoop=1;jettySize=auto;html=1;" edge="1" parent="WIyWlLk6GJQsqaUBKTNV-1" source="jxHOd6wvDyINd-V9LC7c-26" target="rYNuNte5FlujtF33tFsd-0">
          <mxGeometry relative="1" as="geometry" />
        </mxCell>
        <mxCell id="jxHOd6wvDyINd-V9LC7c-26" value="生成线下支付凭证，状态为&quot;审核通过&quot;" style="whiteSpace=wrap;html=1;rounded=0;" parent="WIyWlLk6GJQsqaUBKTNV-1" vertex="1">
          <mxGeometry x="160" y="890" width="120" height="60" as="geometry" />
        </mxCell>
        <mxCell id="rYNuNte5FlujtF33tFsd-3" value="" style="edgeStyle=orthogonalEdgeStyle;rounded=0;orthogonalLoop=1;jettySize=auto;html=1;" edge="1" parent="WIyWlLk6GJQsqaUBKTNV-1" source="rYNuNte5FlujtF33tFsd-0" target="rYNuNte5FlujtF33tFsd-2">
          <mxGeometry relative="1" as="geometry" />
        </mxCell>
        <mxCell id="rYNuNte5FlujtF33tFsd-0" value="可进行批量支付刷单" style="whiteSpace=wrap;html=1;rounded=0;" vertex="1" parent="WIyWlLk6GJQsqaUBKTNV-1">
          <mxGeometry x="160" y="1030" width="120" height="60" as="geometry" />
        </mxCell>
        <mxCell id="rYNuNte5FlujtF33tFsd-5" value="" style="edgeStyle=orthogonalEdgeStyle;rounded=0;orthogonalLoop=1;jettySize=auto;html=1;" edge="1" parent="WIyWlLk6GJQsqaUBKTNV-1" source="rYNuNte5FlujtF33tFsd-2" target="rYNuNte5FlujtF33tFsd-4">
          <mxGeometry relative="1" as="geometry" />
        </mxCell>
        <mxCell id="rYNuNte5FlujtF33tFsd-7" value="" style="edgeStyle=orthogonalEdgeStyle;rounded=0;orthogonalLoop=1;jettySize=auto;html=1;" edge="1" parent="WIyWlLk6GJQsqaUBKTNV-1" source="rYNuNte5FlujtF33tFsd-2" target="rYNuNte5FlujtF33tFsd-6">
          <mxGeometry relative="1" as="geometry" />
        </mxCell>
        <mxCell id="rYNuNte5FlujtF33tFsd-2" value="订单中的发票抬头和税号是否与汇款公司名一致" style="rhombus;whiteSpace=wrap;html=1;rounded=0;" vertex="1" parent="WIyWlLk6GJQsqaUBKTNV-1">
          <mxGeometry x="135" y="1180" width="170" height="90" as="geometry" />
        </mxCell>
        <mxCell id="rYNuNte5FlujtF33tFsd-4" value="审核不通过" style="whiteSpace=wrap;html=1;rounded=0;" vertex="1" parent="WIyWlLk6GJQsqaUBKTNV-1">
          <mxGeometry x="410" y="1195" width="120" height="60" as="geometry" />
        </mxCell>
        <mxCell id="rYNuNte5FlujtF33tFsd-6" value="审核自动通过" style="whiteSpace=wrap;html=1;rounded=0;" vertex="1" parent="WIyWlLk6GJQsqaUBKTNV-1">
          <mxGeometry x="160" y="1365" width="120" height="60" as="geometry" />
        </mxCell>
      </root>
    </mxGraphModel>
  </diagram>
</mxfile>
